<svg xmlns="http://www.w3.org/2000/svg" xmlns:xlink="http://www.w3.org/1999/xlink" viewBox="0 0 48 48"><path fill="#FFA000" d="M40,12H22l-4-4H8c-2.2,0-4,1.8-4,4v8h40v-4C44,13.8,42.2,12,40,12z"/><path fill="#FFCA28" d="M40,12H8c-2.2,0-4,1.8-4,4v20c0,2.2,1.8,4,4,4h32c2.2,0,4-1.8,4-4V16C44,13.8,42.2,12,40,12z"/><path fill="#BF360C" d="M22 18H26V20H22zM22 12H26V14H22zM22 15H26V17H22zM22 21H26V23H22zM26 24h-4c0 3-2 6-2 8 0 2.2 1.8 4 4 4s4-1.8 4-4C28 30 26 27 26 24zM24 34c-1.1 0-2-.9-2-2s.9-2 2-2 2 .9 2 2S25.1 34 24 34z"/></svg>