<svg xmlns="http://www.w3.org/2000/svg" xmlns:xlink="http://www.w3.org/1999/xlink" viewBox="0 0 48 48"><path fill="#9c27b0" d="M31 7l13 1.686L33.296 19 31 7zM17 40.998L4 39.313 14.704 29 17 40.998zM7 17L8.686 4 19 14.704 7 17zM40.998 31l-1.686 13L29 33.296 40.998 31z"/><path fill="#9c27b0" d="M24 40c-1.023 0-2.021-.106-2.99-.289l-.694 3.873c1.262.21 2.525.313 3.684.313 5.683 0 10.736-2.418 14.42-6.209l-2.806-2.704C32.698 38.066 28.579 40 24 40zM8 24c0-.991.103-1.956.275-2.898l-4.168.795C4 22.633 4 23.267 4 24.003c0 4.844 1.686 9.474 4.844 13.051l3.035-2.628C9.467 31.624 8 27.987 8 24zM24 8c1.023 0 2.021.106 2.991.289l.693-3.867C26.525 4.11 25.262 4.003 24 4.003c-5.683 0-10.736 2.422-14.42 6.209l2.806 2.806C15.302 9.934 19.421 8 24 8zM39.473 11.264l-3.145 2.538C38.621 16.571 40 20.124 40 24c0 .993-.103 1.96-.276 2.903l4.169-.795C44 25.372 44 24.739 44 24.003 44 19.373 42.421 14.846 39.473 11.264z"/></svg>